<?xml version="1.0" encoding="UTF-8" standalone="no"?>
<!-- Created with Inkscape (http://www.inkscape.org/) -->

<svg
   width="600"
   height="600"
   viewBox="0 0 158.75 158.75"
   version="1.1"
   id="svg1"
   inkscape:version="1.3 (0e150ed6c4, 2023-07-21)"
   sodipodi:docname="exercise_2.03_rectangle_2.svg"
   inkscape:export-filename="exercise_2.03_rectangle_2.png"
   inkscape:export-xdpi="96"
   inkscape:export-ydpi="96"
   xmlns:inkscape="http://www.inkscape.org/namespaces/inkscape"
   xmlns:sodipodi="http://sodipodi.sourceforge.net/DTD/sodipodi-0.dtd"
   xmlns="http://www.w3.org/2000/svg"
   xmlns:svg="http://www.w3.org/2000/svg">
  <sodipodi:namedview
     id="namedview1"
     pagecolor="#ffffff"
     bordercolor="#666666"
     borderopacity="1.0"
     inkscape:showpageshadow="2"
     inkscape:pageopacity="0.0"
     inkscape:pagecheckerboard="0"
     inkscape:deskcolor="#d1d1d1"
     inkscape:document-units="px"
     inkscape:zoom="1"
     inkscape:cx="102.5"
     inkscape:cy="325"
     inkscape:window-width="1920"
     inkscape:window-height="1172"
     inkscape:window-x="1920"
     inkscape:window-y="0"
     inkscape:window-maximized="1"
     inkscape:current-layer="layer1"
     inkscape:export-bgcolor="#ffffffff" />
  <defs
     id="defs1" />
  <g
     inkscape:label="Layer 1"
     inkscape:groupmode="layer"
     id="layer1">
    <g
       id="g10"
       inkscape:label="axes">
      <path
         style="fill:#000000;stroke-width:0.529167"
         id="path3"
         d="m 11.033753,7.4378562 c -0.07998,0.7760915 -0.113385,1.55569 -0.104774,2.3355758 0.0263,1.148296 0.136717,2.292654 0.235689,3.436387 0.13392,2.010323 0.250585,4.02215 0.354639,6.034362 0.08653,2.713009 0.173324,5.426195 0.24532,8.139662 0.06844,3.087555 0.08081,6.1761 0.08215,9.264314 0.01999,3.256462 -0.02695,6.512697 -0.116335,9.767834 -0.140705,3.244162 -0.230198,6.489586 -0.27446,9.73637 -0.0091,3.663942 -0.08314,7.327265 -0.132567,10.990792 -0.03338,4.152881 -0.280091,8.299206 -0.468645,12.446743 -0.200632,4.656648 -0.29648,9.316167 -0.376157,13.976043 -0.08013,4.695013 -0.167494,9.389771 -0.211825,14.085271 -0.0515,4.1261 -0.01743,8.25166 0.0751,12.37679 0.07956,3.80468 0.163407,7.60899 0.298062,11.41215 0.105785,3.44452 0.179147,6.88981 0.290513,10.33416 0.112194,3.03928 0.208218,6.07758 0.165821,9.11913 -0.112375,0.94284 0.212246,1.79958 0.385289,2.70508 0,0 0.0665,-0.0342 0.0665,-0.0342 v 0 c 0.102011,-1.02042 0.356744,-2.01698 0.293599,-3.05061 -0.03664,-3.03274 -0.111763,-6.06521 -0.216677,-9.09629 -0.1226,-3.43414 -0.250444,-6.86804 -0.35115,-10.30293 -0.115961,-3.79621 -0.248266,-7.59191 -0.34191,-11.38879 -0.0878,-4.12416 -0.112605,-8.24859 -0.07741,-12.37364 4.5e-4,-4.6794 0.02182,-9.358603 0.11889,-14.037188 0.08206,-4.658434 0.212985,-9.315997 0.372043,-13.972444 0.158651,-4.147047 0.385734,-8.292071 0.455946,-12.442005 0.05455,-3.672403 0.07981,-7.345341 0.183815,-11.016869 0.0417,-3.235859 0.07103,-6.472097 0.215924,-9.705533 0.119302,-3.259277 0.141541,-6.518089 0.135519,-9.77951 7.68e-4,-3.081589 -0.03687,-6.16244 -0.126822,-9.242862 -0.05519,-2.727171 -0.04324,-5.456212 -0.16746,-8.181511 -0.109269,-2.021431 -0.195034,-4.043776 -0.296927,-6.065573 -0.0671,-1.153493 -0.159928,-2.30594 -0.177568,-3.4618083 -0.01251,-0.7646062 -0.04697,-1.5334414 0.04746,-2.2944828 z" />
      <path
         style="fill:#000000;stroke-width:0.529167"
         id="path4"
         d="M 9.7143971,10.084237 C 10.362524,9.1889833 11.004063,8.2889914 11.649779,7.392004 c 0.333786,-0.4481685 0.640878,-0.9163662 0.988569,-1.3541116 0.497174,-0.3843951 -0.827632,0.076853 -0.960795,0.4845023 0.155669,0.376867 0.429838,0.7114231 0.661739,1.0467205 0.403399,0.5564336 0.766045,1.1404844 1.149723,1.710231 0.260729,0.3617994 0.464902,0.7806728 0.842148,1.0345778 0.233598,0.118159 0.484061,0.03503 0.726978,-0.0075 0,0 0.06341,-0.03961 0.06341,-0.03961 v 0 c 0.086,-0.175102 0.189463,-0.3058234 0.02841,-0.46311 C 14.862941,9.4775712 14.606998,9.1261691 14.366811,8.7644183 13.982918,8.1947204 13.584451,7.6348126 13.211955,7.0573989 13.024585,6.7695653 12.711959,6.4145236 12.65204,6.0740157 12.908921,5.6248085 11.834356,6.134451 11.671147,6.4544569 11.361529,6.8897727 11.074825,7.3409208 10.76491,7.7760742 10.121837,8.6949443 9.4776463,9.6151413 8.7707747,10.486575 Z" />
      <path
         style="fill:#000000;stroke-width:0.529167"
         id="path5"
         d="m 5.3302312,146.59078 c 0.9455766,0.14613 1.9015525,0.0219 2.8446386,-0.0796 1.1614012,-0.12872 2.3310902,-0.13867 3.4979312,-0.16897 1.254978,-0.0565 2.497517,0.14488 3.738513,0.29733 1.460517,0.13493 2.914239,0.32085 4.365612,0.5306 1.506711,0.22563 3.023662,0.36511 4.543796,0.45682 1.769201,0.11518 3.537842,0.0207 5.304708,-0.0767 1.933527,-0.11258 3.86942,-0.0217 5.804405,-0.0411 2.036612,-0.094 4.073086,-0.09 6.110335,-0.0319 2.24151,0.0555 4.479414,0.18943 6.717991,0.31013 1.831676,0.0815 3.659679,0.22839 5.491413,0.30665 1.500979,0.0182 3.000764,0.0914 4.501679,0.10518 1.594911,-0.0282 3.190153,-0.0431 4.784336,-0.10106 1.462008,-0.0956 2.926125,-0.10759 4.390546,-0.10745 1.446223,0.0228 2.891388,0.01 4.336458,-0.0508 1.329539,-0.0615 2.65944,-0.0803 3.985868,-0.19527 1.152896,-0.13421 2.312382,-0.17187 3.470889,-0.22138 1.503272,-0.0906 3.003754,-0.21436 4.508145,-0.28742 1.80018,-0.0512 3.599373,-0.12177 5.398236,-0.20736 1.934395,-0.0862 3.8707,-0.11125 5.806712,-0.12768 1.499775,-0.0313 2.999174,0.0243 4.498787,0.0211 1.46041,-0.0525 2.91673,-0.14939 4.37867,-0.15565 1.55919,0.0182 3.11847,0.0205 4.67771,0.0331 1.46704,0.0113 2.93359,0.0471 4.39999,0.09 1.4659,0.0469 2.93276,0.0303 4.39912,0.0443 1.38267,0.0363 2.76578,0.0589 4.14821,0.10357 1.28631,0.0714 2.571,0.17466 3.85498,0.28018 1.4869,0.13894 2.9765,0.24315 4.46823,0.31192 1.51388,0.0887 3.02627,0.15262 4.54283,0.14973 1.33381,0.0175 2.66405,-0.0404 3.99339,-0.14222 1.30342,-0.0934 2.61245,-0.0716 3.91788,-0.0412 1.33027,0.0549 2.65712,0.16487 3.98728,0.22279 1.05853,0.0474 2.11801,0.0275 3.17709,0.0238 0.65317,0.005 1.4491,0.0781 1.84715,-0.65574 0.22281,-0.55277 -0.92648,-0.0134 -0.95524,0.45637 -0.0127,0.20108 0.34054,-0.21549 0.50788,-0.3277 0,0 -0.0661,0.0349 -0.0661,0.0349 v 0 c 0.51698,-0.15274 0.51106,0.0183 0.53845,-0.20831 -0.0403,-0.43331 -0.87561,0.16044 -1.02724,0.47088 -0.3062,0.22354 -0.22319,0.15991 0.81949,-0.44722 0.0331,-0.0193 -0.0704,0.032 -0.10788,0.04 -0.23861,0.0508 -0.48912,0.008 -0.72945,0.034 -1.07121,0.029 -2.14322,0.0536 -3.21449,0.0102 -1.33777,-0.0502 -2.67263,-0.14963 -4.00997,-0.20806 -1.30415,-0.0391 -2.6117,-0.0721 -3.91419,0.0264 -1.33203,0.10219 -2.66507,0.16271 -4.00153,0.15651 -1.51365,0.015 -3.02152,-0.0568 -4.53172,-0.15213 -1.48945,-0.0574 -2.97598,-0.15659 -4.45843,-0.31423 -1.28561,-0.10663 -2.57136,-0.22332 -3.86012,-0.28242 -1.39095,-0.0448 -2.78292,-0.0495 -4.1741,-0.0873 -1.46251,-0.0184 -2.92533,-0.009 -4.38752,-0.051 -1.4672,-0.0349 -2.93434,-0.0798 -4.40197,-0.0908 -1.56099,-0.009 -3.1221,-0.002 -4.68295,-0.0301 -1.45874,-0.006 -2.91108,0.0862 -4.36792,0.1472 -1.512791,0.0133 -3.025641,-0.0332 -4.538383,0.007 -1.942917,0.0279 -3.886025,0.0608 -5.827665,0.13965 -1.78952,0.0644 -3.578688,0.13424 -5.368673,0.18497 -1.486176,0.071 -2.970784,0.16738 -4.456301,0.25009 -1.165698,0.0488 -2.332704,0.083 -3.491447,0.23109 -1.329721,0.11818 -2.663184,0.15147 -3.996578,0.20817 -1.445231,0.069 -2.890359,0.0726 -4.337035,0.0565 -1.464942,-0.002 -2.930016,0.008 -4.392501,0.1042 -1.593196,0.0684 -3.187956,0.0886 -4.782423,0.10542 -1.50319,-0.0168 -3.005024,-0.0952 -4.508616,-0.0971 -1.851155,-0.057 -3.698402,-0.19889 -5.5494,-0.26314 -2.234351,-0.1161 -4.467913,-0.25209 -6.70438,-0.32228 -2.03226,-0.0674 -4.063029,-0.0758 -6.095048,0.0164 -1.940427,0.0195 -3.882257,-0.0719 -5.820968,0.0486 -1.751904,0.0878 -3.506848,0.16885 -5.260101,0.0569 -1.517395,-0.0933 -3.033222,-0.22251 -4.536875,-0.45224 -1.449821,-0.2132 -2.901263,-0.40977 -4.361739,-0.53598 -1.242936,-0.15094 -2.485095,-0.37341 -3.742579,-0.31158 -1.167683,0.0349 -2.339607,0.0255 -3.501364,0.16177 -0.9308057,0.10831 -1.8769608,0.23898 -2.8110595,0.0911 z" />
      <path
         style="fill:#000000;stroke-width:0.529167"
         id="path6"
         d="m 148.79439,144.79243 c 0.50203,0.74397 1.00643,1.48626 1.51773,2.22389 0.31486,0.47579 0.67871,0.92545 0.92263,1.44388 0.0405,0.13639 0.13016,0.28225 0.11401,0.43148 -0.004,0.039 -0.11612,0.10479 -0.0832,0.0834 0.30447,-0.19811 0.61436,-0.38776 0.92154,-0.58164 -0.29459,-0.0538 -0.53446,0.0225 -0.80465,0.13998 -1.08423,0.53985 -2.05977,1.23318 -2.99365,1.9935 -0.044,0.10159 -0.67801,0.41916 -0.18238,0.37518 0,0 0.0693,-0.0281 0.0693,-0.0281 v 0 c 0.39521,-0.21356 0.78079,-0.43944 1.11129,-0.7484 0.32955,-0.2654 0.66209,-0.5249 1.0088,-0.76784 0.12784,-0.0896 0.53588,-0.31144 0.38746,-0.26306 -0.21931,0.0715 -0.401,0.22836 -0.60591,0.33426 -0.10143,0.0524 0.19681,-0.11579 0.29521,-0.17368 0.2514,-0.11794 0.4727,-0.23217 0.75411,-0.15835 1.02609,-0.52801 1.38785,-0.36716 1.02405,-1.21329 -0.25693,-0.52147 -0.67998,-0.93732 -0.99434,-1.42336 -0.51463,-0.73258 -1.02933,-1.4664 -1.4992,-2.2288 z" />
      <path
         style="fill:#000000;stroke-width:0.529167"
         id="path7"
         d="m 3.5957809,9.1391316 c 0.6918846,1.0602904 1.2346003,2.2079664 1.9064678,3.2789944 0.2492092,0.184742 0.3110143,0.536801 0.5390621,0.739323 0.096444,0.08565 0.2333511,0.111984 0.3406137,0.183621 0.07668,0.05121 0.1385139,0.121752 0.207771,0.182628 0,0 0.065682,-0.03572 0.065682,-0.03572 v 0 C 6.7061296,13.228056 6.8288055,12.977012 6.8267627,12.712187 6.8259689,12.608396 6.5614152,11.863366 6.5463792,11.819327 6.0186789,10.666303 5.383096,9.5556828 4.7240316,8.4737159 Z" />
      <path
         style="fill:#000000;stroke-width:0.529167"
         id="path8"
         d="m 7.5756462,9.7073515 c -0.4516657,1.5358515 -0.947158,3.0554835 -1.483819,4.5637825 -0.3580093,1.081307 -0.8995143,2.097669 -1.1138347,3.224533 -0.2057485,1.081792 0.140336,0.160746 -0.2522958,1.056754 0,0 0.06819,-0.03066 0.06819,-0.03066 v 0 c 0.2839696,-0.464452 0.6236472,-0.893417 0.90522,-1.359326 0.6413317,-1.06119 1.0083379,-2.235697 1.4516687,-3.385237 C 7.7049515,12.277802 8.262341,10.77052 8.6179683,9.2090734 Z" />
      <path
         style="fill:#000000;stroke-width:0.529167"
         id="path9"
         d="m 150.03459,152.3154 c 0.71432,1.17468 1.43084,2.34865 2.20075,3.48795 0.091,0.1462 0.93997,1.28757 1.14899,1.17572 0.14948,-0.08 0.26855,-0.20701 0.40283,-0.31052 0,0 -0.0665,0.0342 -0.0665,0.0342 v 0 c 0.13631,-0.0561 0.28579,-0.0872 0.40892,-0.16823 0.12122,-0.0797 -0.0367,-0.24937 -0.0623,-0.29353 -0.21897,-0.37829 -0.45144,-0.74712 -0.73098,-1.08524 -0.79246,-1.12363 -1.48077,-2.31068 -2.20145,-3.48051 z" />
      <path
         style="fill:#000000;stroke-width:0.529167"
         id="path10"
         d="m 153.8957,152.03659 c -0.781,1.23831 -1.58119,2.46108 -2.44612,3.64255 -0.032,0.0438 -0.62332,0.84242 -0.70142,0.97906 -0.14091,0.24654 0.0481,0.22866 -0.15358,0.37378 0,0 0.0695,-0.0275 0.0695,-0.0275 v 0 c 0.76548,-0.55856 1.40459,-1.0161 1.95476,-1.83003 0.88347,-1.17893 1.70372,-2.40353 2.46814,-3.66311 z" />
    </g>
    <g
       id="g38"
       inkscape:label="dashed"
       transform="translate(21.980199,-34.920054)">
      <path
         style="display:inline;fill:#000000;stroke-width:0.529167"
         id="path16"
         d="m 35.75799,90.507938 c 1.113753,-0.04568 2.216295,-0.189513 3.311631,-0.390477 0.526367,-0.07342 0.992195,-0.32792 1.49253,-0.483656 0,0 0.06179,-0.0421 0.06179,-0.0421 v 0 c 0.170405,-0.452138 0.298011,-0.486262 -0.356909,-0.379259 -1.109906,0.220625 -2.228371,0.411784 -3.361968,0.449432 z" />
      <path
         style="display:inline;fill:#000000;stroke-width:0.529167"
         id="path17"
         d="m 43.010576,90.753064 c 1.036908,0.192857 2.102371,0.298257 3.156638,0.237953 0.480968,-0.172067 0.976612,-0.512236 1.508779,-0.43701 0,0 0.06223,-0.04145 0.06223,-0.04145 v 0 c -0.233312,-0.236836 -0.06899,-0.399211 0.04087,-0.688133 -1.022623,-0.117412 -2.061067,-0.09122 -3.081033,-0.253768 z" />
      <path
         style="display:inline;fill:#000000;stroke-width:0.529167"
         id="path18"
         d="m 51.013343,91.377737 c 1.123218,-0.0081 2.248506,0.0052 3.370287,-0.05876 0.58012,-0.02633 1.076632,-0.299355 1.591093,-0.534075 0.362402,-0.165346 0.232304,-0.186428 0.43157,-0.124822 0,0 0.0618,-0.04207 0.0618,-0.04207 v 0 c -0.02736,-0.0089 -0.08088,0.0021 -0.08209,-0.02661 -0.01307,-0.310152 0.638472,-0.554937 -0.233317,-0.570769 -1.122749,0.04367 -2.245797,0.06986 -3.369421,0.07762 z" />
      <path
         style="display:inline;fill:#000000;stroke-width:0.529167"
         id="path19"
         d="m 59.971669,91.310456 c 0.08539,0.04751 0.162695,0.114073 0.256178,0.142539 0.701005,0.213461 1.769229,0.04951 2.503453,-0.0013 0.879803,0.04425 1.605875,-0.374935 2.368849,-0.743103 0,0 0.06041,-0.04405 0.06041,-0.04405 v 0 c 0.08595,-0.133176 0.212783,-0.239332 0.285906,-0.37996 0.214876,-0.413243 -0.753557,-0.22728 -0.832104,-0.223261 -1.026536,0.08686 -2.052005,0.158491 -3.081928,0.176757 z" />
      <path
         style="display:inline;fill:#000000;stroke-width:0.529167"
         id="path20"
         d="m 67.952389,91.822806 c 1.104355,0.224695 2.255541,0.07858 3.375983,0.05465 0.455636,-0.03656 0.931912,0.058 1.379519,-0.07311 0.477657,-0.139909 0.915355,-0.409184 1.33351,-0.669002 0.0275,-0.0086 0.05501,-0.01725 0.08251,-0.02588 0,0 0.05911,-0.04577 0.05911,-0.04577 v 0 c -0.02744,0.0087 -0.05487,0.01744 -0.08231,0.02614 0.03391,-0.0346 0.440261,-0.407138 0.320002,-0.534086 -0.157292,-0.166039 -1.052581,0.02453 -1.248081,-0.02484 -1.155986,0.02946 -2.312565,0.0997 -3.469034,0.06685 z" />
      <path
         style="display:inline;fill:#000000;stroke-width:0.529167"
         id="path21"
         d="m 77.527689,92.53476 c 1.023453,0.09336 2.052669,-1.08e-4 3.073318,-0.08626 0.147164,-0.01273 0.295018,-0.01905 0.441494,-0.03815 0.395986,-0.05159 0.748551,-0.154871 1.110329,-0.321704 0.372264,-0.171667 0.323009,-0.303853 0.365985,-0.12188 0,0 0.06575,-0.0356 0.06575,-0.0356 v 0 c -0.04149,-0.151688 0.323549,-0.299836 0.214416,-0.438631 -0.08472,-0.107746 -0.855202,0.0089 -0.92456,0.01283 -1.072726,0.106315 -2.14707,0.174448 -3.224059,0.216403 z" />
      <path
         style="display:inline;fill:#000000;stroke-width:0.529167"
         id="path22"
         d="m 85.726359,92.494686 c 0.968692,0.110289 1.957025,0.01267 2.923767,-0.09011 0.848823,-0.06916 1.615792,-0.440386 2.324667,-0.890116 0,0 0.05884,-0.04613 0.05884,-0.04613 v 0 c 0.05952,-0.06284 0.219892,-0.228914 0.240842,-0.274798 0.01376,-0.03014 -0.01736,-0.06414 -0.02993,-0.09479 -0.01667,-0.04064 -0.01524,-0.106852 -0.0576,-0.118541 -0.08295,-0.02289 -0.727401,0.08104 -0.732838,0.08182 -1.032997,0.128251 -2.071116,0.162017 -3.106362,0.258056 z" />
      <path
         style="display:inline;fill:#000000;stroke-width:0.529167"
         id="path23"
         d="m 93.428345,92.363006 c -0.03472,0.14792 -0.08228,0.293401 -0.104169,0.443756 -0.04268,0.293169 -0.07176,1.058175 -0.08238,1.330077 -0.02891,0.739894 -0.0486,1.480272 -0.07318,2.220325 -0.127085,1.062238 0.484055,0.597196 0.964178,1.183261 0,0 0.06724,-0.03269 0.06724,-0.03269 v 0 c 0.298606,-0.448432 0.952198,-1.193038 1.125773,-1.630537 0.079,-0.199131 0.03776,-0.426792 0.05664,-0.640186 0.01712,-0.739428 0.04025,-1.477719 0.07691,-2.216475 0.01045,-0.210614 0.06217,-1.060622 0.05399,-1.310087 -0.004,-0.122254 -0.0319,-0.242547 -0.04786,-0.363821 z" />
      <path
         style="display:inline;fill:#000000;stroke-width:0.529167"
         id="path24"
         d="m 93.817653,100.4047 c -0.164269,1.26501 -0.193725,2.58251 0.0313,3.84062 0.213537,0.60136 0.26261,0.74725 0.880623,0.85863 0,0 0.06596,-0.0352 0.06596,-0.0352 v 0 c 0.385189,-0.55332 0.642914,-0.98385 0.723432,-1.682 0.109437,-1.23937 0.07533,-2.54019 -0.215987,-3.752622 z" />
      <path
         style="display:inline;fill:#000000;stroke-width:0.529167"
         id="path25"
         d="m 94.237079,108.53723 c -0.123106,1.43824 0.04042,2.87795 0.163279,4.31033 0.08017,0.69016 -0.03243,0.78926 0.426434,1.27657 0.468019,0.49703 0.307475,0.002 0.409845,0.47465 0,0 0.06632,-0.0345 0.06632,-0.0345 v 0 c 0.01548,-0.56222 -0.03538,0.0645 0.278749,-0.83508 0.283406,-0.81159 0.20274,-0.72031 0.135337,-1.56705 -0.125293,-1.40173 -0.139189,-2.81495 -0.359688,-4.20557 z" />
      <path
         style="display:inline;fill:#000000;stroke-width:0.529167"
         id="path26"
         d="m 94.627037,117.38085 c -0.181639,1.33422 -0.257331,2.6816 -0.390231,4.02204 0.0496,0.24461 -0.09432,0.90086 0.188841,1.09523 0.238223,0.16352 0.282186,-0.0868 0.224721,0.11288 0,0 0.06754,-0.0321 0.06754,-0.0321 v 0 c 0.07154,-0.25357 -0.04692,0.11644 0.336116,-0.38924 0.31336,-0.4137 0.39854,-0.96513 0.520317,-1.45133 0.135403,-1.30395 0.284869,-2.62495 0.199903,-3.93573 z" />
      <path
         style="display:inline;fill:#000000;stroke-width:0.529167"
         id="path27"
         d="m 93.622076,125.7163 c -0.01215,1.1246 -0.05609,2.25234 0.0118,3.37591 0.217395,0.47892 0.236845,0.57726 0.759693,0.60118 0,0 0.319315,-0.15861 0.319315,-0.15861 v 0 c 0.448395,-0.44749 0.700574,-0.8142 0.888026,-1.43568 0.142748,-1.14309 0.127723,-2.29906 0.102341,-3.44901 z" />
      <path
         style="display:inline;fill:#000000;stroke-width:0.529167"
         id="path28"
         d="m 94.309101,131.51218 c -5.29e-4,0.53254 -0.0054,1.06516 -0.01585,1.5976 -0.0042,0.21315 -0.03523,0.84336 0.0076,1.07569 0.02328,0.1262 0.091,0.23999 0.136498,0.35998 0.269928,0.42573 0.275966,0.42665 0.767649,0.32974 0,0 0.06737,-0.0324 0.06737,-0.0324 v 0 c 0.541104,-0.41718 0.626771,-0.52217 0.884303,-1.16533 0.05635,-0.17196 0.131638,-0.33884 0.16904,-0.51589 0.18701,-0.88528 0.01667,-1.82984 0.08379,-2.7246 z" />
    </g>
    <g
       id="g39"
       inkscape:label="legend"
       transform="translate(7.14375,-12.170833)"
       style="display:inline">
      <path
         style="display:inline;fill:#000000;stroke-width:0.529167"
         id="path36"
         d="m 38.415861,113.66412 c -0.165662,1.5252 -0.162431,3.06998 -0.207271,4.60414 -0.03757,1.79308 -0.165424,3.58231 -0.360751,5.36467 -0.03214,0.29741 -0.07122,0.59384 -0.0985,0.89173 -0.0019,0.0206 -0.0238,0.0724 -0.0059,0.0619 1.968428,-1.1484 1.930145,-0.42894 1.822927,-1.50599 -0.09042,-1.30378 -0.02201,-2.609 0.03293,-3.91246 0.05624,-1.30107 0.273404,-2.58132 0.667513,-3.82115 0.219515,-0.53252 0.450141,-1.10869 0.8993,-1.49606 0.08417,-0.0726 0.372114,-0.24297 0.276309,-0.18664 -0.448311,0.26363 -0.889506,0.53917 -1.334258,0.80875 0.565816,-0.16954 1.031607,0.17733 1.435331,0.536 0.526413,0.5664 0.409226,1.12345 0.230669,1.81708 -0.264768,0.71984 -0.627594,1.40289 -1.244643,1.87323 0.596644,-0.35412 1.20014,-0.69694 1.789934,-1.06236 0.03015,-0.0187 -0.166085,0.11617 -0.506024,0.16629 -0.251891,0.0371 -0.488246,0.002 -0.735176,-0.0436 -0.381086,-0.0902 -0.756921,-0.0281 -1.121238,0.1023 -0.574687,0.20576 -0.253963,0.1681 -0.608461,0.18997 0,0 -0.06438,0.038 -0.06438,0.038 v 0 c -0.170806,0.34244 -0.86434,0.79906 -0.226785,1.07002 1.466289,0.39293 2.380819,-0.49333 3.687477,-1.36079 0.518448,-0.51794 0.785383,-1.17074 0.923186,-1.88703 0.13335,-0.72898 0.212302,-1.44673 -0.419817,-1.96699 -0.487375,-0.39654 -1.004522,-0.75535 -1.666713,-0.64162 -1.829487,1.02909 -2.288831,0.99018 -2.915922,2.80013 -0.371675,1.25542 -0.562659,2.54381 -0.63247,3.85157 -0.09124,1.3313 -0.07302,2.66613 -0.180769,3.99665 -0.111654,1.05513 -0.18145,0.54914 1.82511,-0.30355 0.02699,-0.0114 0.07184,-0.55429 0.07273,-0.56672 0.0099,-0.13726 0.0189,-0.27458 0.02835,-0.41188 0.106563,-1.77808 0.203758,-3.55684 0.275836,-5.33668 0.02284,-1.42569 0.123468,-3.01031 -0.241778,-4.39458 z"
         inkscape:label="p"
         sodipodi:insensitive="true" />
      <g
         id="g43"
         inkscape:label="q"
         transform="translate(-7.14375,12.170833)">
        <path
           style="fill:#000000;stroke-width:0.529167"
           id="path42"
           d="m 127.18688,52.111399 c -1.54007,-0.128212 -3.004,0.650139 -4.07385,1.756912 -0.47117,0.672071 -1.0702,1.564077 -0.71594,2.418871 0.0611,0.147336 0.17035,0.269682 0.25553,0.404522 0.11712,0.100237 0.21984,0.220305 0.35137,0.300709 1.29902,0.794081 3.19945,-0.840639 4.05049,-1.330227 0.87067,-0.74178 1.29654,-1.825987 1.58428,-2.9035 0.16292,-0.828707 0.27822,-1.683147 0.17896,-2.527218 -0.31618,-0.825029 -0.0776,-0.319207 -2.07701,0.967412 -0.0742,0.04774 -0.0382,0.172281 -0.0567,0.258545 -0.11165,0.519676 -0.20806,1.037818 -0.29664,1.56223 -0.37019,2.130859 -0.72899,4.263557 -1.10621,6.393217 -0.13865,0.809157 -0.28901,1.616266 -0.44033,2.423131 -0.0862,0.459428 -0.20548,0.895122 -0.19562,1.362757 0.36237,0.224812 0.50913,-0.02601 0.80229,-0.282215 0,0 -0.0696,0.03945 -0.0696,0.03945 v 0 c 0.62797,-0.106894 0.67171,-0.121404 1.06524,-0.630716 0.44219,-1.211374 0.38547,-2.559166 0.67427,-3.809053 0.35502,-2.137817 0.73261,-4.272158 1.13589,-6.401379 0.12012,-0.52147 0.2151,-1.075076 0.39742,-1.581579 0.0279,-0.07753 0.18066,-0.252761 0.10321,-0.224631 -1.99637,0.725019 -2.17966,0.241729 -1.87917,0.941014 0.0916,0.816187 -0.0319,1.646828 -0.20309,2.443957 -0.31377,1.04908 -0.75208,2.101783 -1.67151,2.76144 0.50142,-0.281636 1.01046,-0.550114 1.50425,-0.844905 0.13072,-0.07804 -0.27071,0.141193 -0.41358,0.193789 -0.55407,0.203973 -1.09757,0.1855 -1.55371,-0.214164 -0.0755,-0.111062 -0.17334,-0.209873 -0.22655,-0.333182 -0.3377,-0.782537 0.35181,-1.646018 0.80962,-2.210559 0.68915,-0.569209 0.8931,-0.703265 -1.18377,0.57364 -0.11219,0.06898 0.24124,-0.107717 0.36763,-0.144727 0.25871,-0.07576 0.51795,-0.09403 0.78505,-0.109125 0.11869,-0.0067 0.23764,-0.0072 0.35646,-0.01085 z" />
        <path
           style="fill:#000000;stroke-width:0.529167"
           id="path43"
           d="m 122.27198,59.736248 c 0.94749,0.169953 1.9092,0.174453 2.86706,0.128072 0.95879,-0.09933 1.93351,-0.126571 2.87784,-0.330671 0.4748,-0.113525 0.83497,-0.403286 1.20738,-0.698436 0,0 -0.0635,0.0487 -0.0635,0.0487 v 0 c 0.0674,-0.0388 0.83021,-0.391149 0.83927,-0.694973 10e-4,-0.03925 -0.0667,-0.04146 -0.10006,-0.0622 -0.9319,0.01958 -1.85325,0.262308 -2.78694,0.287001 -1.02306,0.06117 -2.04746,0.07932 -3.07229,0.06267 z" />
      </g>
    </g>
    <g
       id="g40"
       inkscape:label="points">
      <path
         style="display:inline;fill:#000000;stroke-width:0.70867"
         id="path11"
         d="m 55.3097,99.578597 c -0.289666,-0.79055 -0.293214,-1.55326 0.46894,-2.06539 -1.092083,0.63391 -2.193944,1.25223 -3.276246,1.9017 -0.03023,0.0182 0.214811,-0.15464 0.470128,-0.0484 0.283967,0.11812 0.381258,0.41541 0.474565,0.668473 0.153259,0.73553 -0.178335,1.35064 -0.842424,1.69925 6.269655,-3.676573 3.422475,-0.88553 2.088816,-2.309033 -0.229692,-0.56338 0.171544,-1.12033 0.560674,-1.51086 1.498105,-0.78466 -0.799973,0.41455 -3.062071,1.77217 -0.04368,0.0262 0.226136,-0.11311 0.370832,0.0352 0.127157,0.13026 0.123565,0.399703 0.141542,0.545803 -0.02498,0.43529 -0.104656,0.79336 -0.466355,1.08179 -0.103894,0.0828 -0.458653,0.27283 -0.34289,0.20639 3.347378,-1.921483 4.470155,-2.205323 3.05263,-1.823583 -0.576633,-0.34437 -0.08685,-1.27939 0.145095,-1.7051 0.667872,-0.89129 0.209643,-0.67619 -0.55065,-0.40161 0,0 -0.847708,0.3288 -0.847708,0.3288 v 0 c -0.880373,0.40502 -1.77889,0.81107 -2.266748,1.6761 -0.4077,0.794933 -0.634948,1.772813 0.09953,2.462783 1.756362,0.5352 0.392716,0.20895 4.236875,-2.04996 0.219692,-0.129073 0.442604,-0.515393 0.520645,-0.730423 0.1223,-0.33698 0.09852,-0.58702 0.106111,-0.93702 -0.06786,-0.34863 -0.0628,-0.5485 -0.290122,-0.84244 -0.978921,-1.26573 -3.836272,1.06913 -4.680989,1.96844 -0.421134,0.609213 -0.706226,1.330063 -0.323409,2.028293 1.626567,1.84517 3.546053,-0.10719 5.403842,-1.29936 0.604399,-0.591153 0.823801,-1.349043 0.601322,-2.164973 -1.081673,-2.64577 -3.170773,-0.17648 -5.176685,0.99462 -0.562333,0.75801 -0.57622,1.636303 -0.277077,2.508563 z"
         inkscape:label="point p" />
      <path
         style="fill:#000000;stroke-width:0.640721"
         id="path39"
         d="m 116.42116,57.931125 c -0.85853,-0.313881 -0.97791,-1.066434 -0.88316,-1.927581 0.19886,-1.119921 0.88151,-1.964803 1.64073,-2.718446 0.62503,-0.416588 2.31433,-1.816459 -0.53465,0.253153 -0.10053,0.07302 0.2275,-0.09578 0.34678,-0.121255 0.28699,-0.06127 0.2569,-0.0328 0.47176,0.09893 0.30647,0.968448 -0.24177,2.033795 -0.69408,2.849575 -0.36291,0.485405 -0.41733,0.618893 -0.88429,1.000302 -0.16761,0.136892 -0.71394,0.480804 -0.5321,0.366362 2.90667,-1.829464 1.93177,-1.035771 0.80911,-0.897821 -0.75036,-0.07195 -1.22908,-0.676543 -0.99082,-1.488311 0.0504,-0.171769 0.14685,-0.324156 0.22029,-0.486232 0.12076,-0.149642 0.22756,-0.313495 0.36228,-0.448928 0.13868,-0.139399 0.3024,-0.247479 0.45359,-0.371217 -0.60583,0.387324 -1.23573,0.734811 -1.8175,1.161975 -0.14177,0.104095 0.31988,-0.138806 0.48658,-0.184723 0.39808,-0.109644 0.43397,-0.07343 0.81154,-0.03338 0.82982,0.381779 0.30853,1.283736 -0.0533,1.85207 -0.72123,0.747566 -2.557,2.121131 1.38595,-0.708255 0.0898,-0.06442 -0.20989,0.07403 -0.31807,0.06977 -0.25616,-0.01012 -0.25499,-0.147837 -0.35657,-0.352978 -0.0626,-1.176772 0.54207,-2.202917 1.42085,-2.859703 -5.76977,3.884654 -2.17966,0.628934 -1.6824,1.534316 0.20471,0.372748 0.0121,0.852439 -0.0965,1.208716 -0.2549,0.563229 -0.59299,1.04162 -1.06626,1.415634 -0.13785,0.108944 -0.58414,0.384265 -0.4371,0.289951 2.15106,-1.379691 2.8783,-1.376826 1.85597,-1.328797 -0.25275,-0.704845 0.60147,-1.756971 1.06382,-2.181051 1.23007,-0.68502 -0.43624,0.233548 -1.85115,1.218433 -0.0416,0.02897 0.10534,-0.012 0.1486,0.01409 0.0358,0.0215 0.0593,0.06938 0.0626,0.112981 0.0138,0.179618 -0.10816,0.478524 -0.15439,0.619817 -0.18883,0.430889 -0.47524,0.788033 -0.80787,1.100304 -0.0752,0.07056 -0.32567,0.247159 -0.23794,0.19563 2.75351,-1.617181 2.49574,-1.475791 1.62113,-1.033605 -0.24697,0.05153 -0.72805,0.117767 -0.94688,-0.06559 -0.0584,-0.04897 -0.0216,-0.156786 -0.0324,-0.235178 0,0 -0.0835,0.04548 -0.0835,0.04548 v 0 c -0.009,0.08967 0.009,0.188018 -0.0274,0.269005 -0.19801,0.430245 -0.63486,0.730507 -0.54661,1.2712 0.0336,0.04302 0.0535,0.153634 0.10065,0.129058 0.75274,-0.39228 2.41168,-1.136265 3.11268,-2.113019 0.26677,-0.371723 0.27937,-0.463537 0.46083,-0.886026 0.57377,-2.653792 -2.28596,-0.496531 -3.41596,0.498629 -0.48947,0.56797 -1.19506,1.603238 -1.01748,2.434106 0.0293,0.136307 0.1292,0.243372 0.19378,0.365057 0.10816,0.037 0.22111,0.161351 0.32435,0.110969 0.86667,-0.422969 2.83567,-1.342357 3.67592,-2.44411 0.32265,-0.42306 0.38067,-0.629525 0.59641,-1.116107 0.13243,-0.582715 0.29932,-1.413793 -0.29215,-1.81382 -0.10299,-0.06964 -0.23869,-0.167093 -0.34994,-0.113843 -0.97154,0.465058 -1.87174,1.083531 -2.80761,1.625296 -0.86161,0.836593 -1.46278,1.994243 -1.30372,3.268292 0.0688,0.139445 0.11038,0.298657 0.2066,0.418332 0.14133,0.175775 0.47314,0.380008 0.71019,0.255355 1.42617,-0.749964 2.61474,-1.210974 3.51251,-2.453809 0.42243,-0.823082 0.73593,-1.884004 -0.29491,-2.328571 -1.89641,-0.312315 -3.99118,1.196904 -5.05426,2.806619 -0.0667,0.191622 -0.15965,0.375112 -0.20036,0.574862 -0.20016,0.982167 0.35253,1.743069 1.24245,1.922734 1.53998,-0.07239 2.36827,-0.934475 3.85941,-1.873116 0.56284,-0.354308 0.98961,-0.898023 1.34371,-1.471043 0.34942,-0.699581 1.00809,-2.059917 0.60736,-2.862149 -0.0604,-0.120942 -0.17127,-0.204435 -0.25689,-0.306649 -0.11797,-0.0402 -0.23107,-0.103646 -0.3539,-0.120617 -0.21149,-0.02923 -0.62105,0.0417 -0.80441,0.143991 -1.10407,0.615971 -2.18257,1.208333 -3.12763,2.059576 -0.77628,0.806885 -1.45356,1.716018 -1.6277,2.891348 -0.0746,1.013318 0.0738,1.751175 1.00585,2.212712 z"
         inkscape:label="point q" />
    </g>
    <path
       style="opacity:1;fill:#000000;stroke-width:0.529167"
       id="path45"
       d="m 55.353428,55.379027 c 0.02045,1.234096 -0.191659,2.494237 0.0069,3.717329 0.05819,0.224568 0.04799,0.446593 0.295031,0.556699 0.09592,0.04275 0.220256,-0.01341 0.312987,0.03587 0.03721,0.01976 -0.0054,0.0841 -0.0081,0.12615 0,0 0.07151,-0.03587 0.07151,-0.03587 v 0 c 0.0027,-0.04213 -0.01582,-0.09153 0.008,-0.126389 0.09133,-0.133705 0.232627,-0.228045 0.324972,-0.361051 0.227742,-0.32803 0.218061,-0.473588 0.30064,-0.857964 0.206463,-1.256469 0.05544,-2.538997 0.190839,-3.805044 z" />
    <path
       style="opacity:1;fill:#000000;stroke-width:0.529167"
       id="path46"
       d="m 54.598511,62.177924 c -0.02871,1.326348 0.02455,2.654604 0.06827,3.980526 0.07973,0.959485 -0.07903,0.910183 0.774404,1.226223 0,0 0.07088,-0.0371 0.07088,-0.0371 v 0 c 0.06665,-0.10732 0.49397,-0.793575 0.503759,-0.819573 0.115882,-0.307705 0.07049,-0.787794 0.063,-1.096489 -0.06764,-1.326721 -0.0699,-2.65249 -0.05841,-3.979955 z" />
    <path
       style="opacity:1;fill:#000000;stroke-width:0.529167"
       id="path47"
       d="m 54.148939,70.750839 c 0.170715,1.289664 0.06867,2.591054 0.149156,3.885504 0.0454,0.300138 0.0675,0.645912 0.209709,0.926378 0.243909,0.309398 0.153199,0.153509 0.290991,0.456171 0,0 0.07129,-0.03629 0.07129,-0.03629 v 0 c 0.204565,-0.644502 0.550963,-1.240798 0.59535,-1.935314 0.175159,-1.340591 0.2028,-2.693111 0.114302,-4.042635 z" />
    <path
       style="opacity:1;fill:#000000;stroke-width:0.529167"
       id="path48"
       d="m 53.919355,78.687564 c -0.08667,1.277059 0.06872,2.564482 0.151823,3.840731 0.05479,0.188577 -0.08582,1.072126 0.272677,1.14798 0.792586,0.1677 0.377036,-0.259932 0.599324,-0.0099 0,0 0.07172,-0.03544 0.07172,-0.03544 v 0 c 0.356023,-0.58795 -0.540224,0.858025 0.640217,-0.628185 0.299702,-0.377333 0.143703,-0.935892 0.112054,-1.357151 -0.07344,-0.675952 -0.136673,-1.350092 -0.167857,-2.029632 -0.01617,-0.352142 -0.02246,-0.998397 -0.06374,-1.367255 -0.01363,-0.121783 -0.04726,-0.240485 -0.07089,-0.360725 z" />
    <path
       style="opacity:1;fill:#000000;stroke-width:0.529167"
       id="path49"
       d="m 53.679896,86.989445 c 0.068,1.339967 0.05846,2.681634 0.08183,4.022638 0.03242,0.277924 0.02342,1.035259 0.443495,1.099262 0.09207,0.01402 0.183941,-0.02935 0.275913,-0.04402 0,0 0.07186,-0.03516 0.07186,-0.03516 v 0 c 0.103259,-0.08378 0.220149,-0.153112 0.309777,-0.251338 0.382764,-0.419486 0.453178,-1.045401 0.491894,-1.582394 -0.0035,-1.336529 -0.05844,-2.676652 -0.14524,-4.009591 z" />
    <path
       style="opacity:1;fill:#000000;stroke-width:0.529167"
       id="path50"
       d="m 53.21179,93.760006 c 0.159422,1.061336 0.305419,2.123252 0.413134,3.191287 0.0055,0.2432 0.135207,0.683837 0.420931,0.769647 0.07707,0.02315 0.160366,-0.01352 0.240551,-0.02029 0,0 0.771559,-0.37411 0.771559,-0.37411 v 0 c 0.449858,-0.406029 0.702887,-0.846042 0.673534,-1.474441 -0.100134,-1.06985 -0.293833,-2.128972 -0.432199,-3.194238 z" />
    <path
       style="opacity:1;fill:#000000;stroke-width:0.529167"
       id="path51"
       d="m 56.967511,99.80977 c 1.085903,-0.143061 2.178359,-0.224176 3.265532,-0.355574 0.6657,-0.03762 1.230281,-0.242586 1.779633,-0.605372 0.0624,-0.0446 0.124801,-0.0892 0.1872,-0.1338 0,0 0.06739,-0.04311 0.06739,-0.04311 v 0 c 0.05888,-0.04697 0.11775,-0.09394 0.176625,-0.140904 0.740952,-0.661125 -0.417319,-0.184597 -0.708938,-0.199356 -1.075677,0.162229 -2.159902,0.252635 -3.243045,0.349951 z" />
    <path
       style="opacity:1;fill:#000000;stroke-width:0.529167"
       id="path52"
       d="m 63.716092,99.372948 c 1.188749,0.09428 2.383031,0.07471 3.574487,0.06887 1.073988,0.02821 1.476547,0.05858 2.387851,-0.536551 0.112535,-0.0793 0.225068,-0.158607 0.3376,-0.237908 0,0 0.07397,-0.03048 0.07397,-0.03048 v 0 c 0.125291,-0.0916 0.250585,-0.183205 0.375878,-0.274809 0.0876,-0.0798 0.416576,-0.326121 0.396311,-0.448583 -0.02162,-0.130672 -1.261319,-0.03793 -1.413655,-0.04327 -1.181801,0.02103 -2.366312,0.04305 -3.545538,-0.05604 z" />
    <path
       style="opacity:1;fill:#000000;stroke-width:0.529167"
       id="path53"
       d="m 72.669986,100.20224 c 1.163773,-0.16482 2.338862,-0.239602 3.512008,-0.301578 0.227015,-0.07554 0.477348,0.02953 0.706562,-0.02524 0.548598,-0.131125 1.048316,-0.47475 1.514065,-0.775126 0,0 0.06963,-0.03939 0.06963,-0.03939 v 0 c 0.05259,-0.04115 0.920702,-0.708895 0.671804,-0.83452 -0.218732,-0.110397 -0.524735,0.168281 -0.734225,0.03447 -1.168397,0.08303 -2.336913,0.166225 -3.503988,0.266219 z" />
    <path
       style="opacity:1;fill:#000000;stroke-width:0.529167"
       id="path54"
       d="m 80.836407,100.36066 c 0.980312,0.43805 2.080474,0.49279 3.13841,0.54443 0.73673,-0.002 1.480923,0.10956 2.21257,-0.009 0.564195,-0.32114 1.443943,-0.80915 1.825292,-1.154457 0.119211,-0.107947 -0.316227,0.05879 -0.474342,0.08818 0,0 -0.07114,0.0366 -0.07114,0.0366 v 0 c -1.299255,0.828157 0.537043,-0.19617 0.952011,-0.633502 -0.71383,0.04675 -1.429377,0.01037 -2.144155,0.01331 -1.134125,-0.02789 -2.258192,-0.131405 -3.380578,-0.298381 z" />
    <path
       style="opacity:1;fill:#000000;stroke-width:0.529167"
       id="path55"
       d="m 89.530514,101.03223 c 1.195753,0.32344 2.512886,0.25715 3.750405,0.28782 0.76235,0.0544 1.383089,-0.48164 2.04419,-0.78371 0,0 0.06376,-0.0483 0.06376,-0.0483 v 0 c -0.06311,-0.31879 1.02898,-0.74488 0.0061,-0.700952 -1.295046,0.0076 -2.592554,-0.01474 -3.883814,-0.115461 z" />
    <path
       style="opacity:1;fill:#000000;stroke-width:0.529167"
       id="path56"
       d="m 97.849742,101.28621 c 1.092626,-0.0163 2.183898,-0.0158 3.275418,0.0415 0.44607,-0.0626 1.28284,0.24369 1.70402,0.12087 0.13129,-0.0383 0.24986,-0.11127 0.37478,-0.16691 0.57888,-0.32358 0.25132,-0.0982 0.91036,-0.77091 0,0 -0.0707,0.0375 -0.0707,0.0375 v 0 c 0.69173,-0.34607 0.42747,-0.1709 0.82921,-0.4659 0.041,-0.06 0.13401,-0.108161 0.12291,-0.17995 -0.0103,-0.0667 -1.53374,-0.137753 -1.67073,-0.155501 -1.08284,-0.05599 -2.1675,-0.07128 -3.2517,-0.06273 z" />
    <path
       style="opacity:1;fill:#000000;stroke-width:0.529167"
       id="path58"
       d="m 107.92556,101.2818 c 0.98167,0.27064 2.02241,0.14236 3.03055,0.14846 0.69515,0.0212 1.39145,0.0199 2.082,-0.0687 0.32292,-0.0513 0.63899,-0.1365 0.95898,-0.20268 0.54545,-0.11927 0.90984,-0.62294 1.29059,-0.98184 -0.0396,-0.004 -0.0792,-0.008 -0.11882,-0.0127 0,0 -0.0652,0.0464 -0.0652,0.0464 v 0 c 0.0395,0.004 0.0789,0.008 0.11834,0.012 0.34051,-0.23448 0.68058,-0.469597 1.02153,-0.703435 0.0505,-0.03465 0.20239,-0.08697 0.1462,-0.111374 -0.0542,-0.02352 -0.13261,0.06733 -0.18573,0.05885 -0.31511,0.101087 -0.64527,0.151625 -0.96389,0.240731 -0.69847,0.134985 -1.40991,0.16795 -2.12047,0.150522 -1.05796,0.0085 -2.12567,0.179646 -3.17645,0.03754 z" />
  </g>
</svg>
