<?xml version="1.0" encoding="UTF-8" standalone="no"?>
<!-- Created with Inkscape (http://www.inkscape.org/) -->

<svg
   width="600"
   height="600"
   viewBox="0 0 158.75 158.75"
   version="1.1"
   id="svg1"
   inkscape:version="1.3 (0e150ed6c4, 2023-07-21)"
   sodipodi:docname="exercise_2.03_rectangle_1.svg"
   inkscape:export-filename="exercise_2.03_rectangle_1.png"
   inkscape:export-xdpi="96"
   inkscape:export-ydpi="96"
   xmlns:inkscape="http://www.inkscape.org/namespaces/inkscape"
   xmlns:sodipodi="http://sodipodi.sourceforge.net/DTD/sodipodi-0.dtd"
   xmlns="http://www.w3.org/2000/svg"
   xmlns:svg="http://www.w3.org/2000/svg">
  <sodipodi:namedview
     id="namedview1"
     pagecolor="#ffffff"
     bordercolor="#666666"
     borderopacity="1.0"
     inkscape:showpageshadow="2"
     inkscape:pageopacity="0.0"
     inkscape:pagecheckerboard="0"
     inkscape:deskcolor="#d1d1d1"
     inkscape:document-units="px"
     inkscape:zoom="1"
     inkscape:cx="207.5"
     inkscape:cy="207"
     inkscape:window-width="1920"
     inkscape:window-height="1172"
     inkscape:window-x="1920"
     inkscape:window-y="0"
     inkscape:window-maximized="1"
     inkscape:current-layer="layer1"
     inkscape:export-bgcolor="#ffffffff" />
  <defs
     id="defs1" />
  <g
     inkscape:label="Layer 1"
     inkscape:groupmode="layer"
     id="layer1">
    <g
       id="g10"
       inkscape:label="axes">
      <path
         style="fill:#000000;stroke-width:0.529167"
         id="path3"
         d="m 11.033753,7.4378562 c -0.07998,0.7760915 -0.113385,1.55569 -0.104774,2.3355758 0.0263,1.148296 0.136717,2.292654 0.235689,3.436387 0.13392,2.010323 0.250585,4.02215 0.354639,6.034362 0.08653,2.713009 0.173324,5.426195 0.24532,8.139662 0.06844,3.087555 0.08081,6.1761 0.08215,9.264314 0.01999,3.256462 -0.02695,6.512697 -0.116335,9.767834 -0.140705,3.244162 -0.230198,6.489586 -0.27446,9.73637 -0.0091,3.663942 -0.08314,7.327265 -0.132567,10.990792 -0.03338,4.152881 -0.280091,8.299206 -0.468645,12.446743 -0.200632,4.656648 -0.29648,9.316167 -0.376157,13.976043 -0.08013,4.695013 -0.167494,9.389771 -0.211825,14.085271 -0.0515,4.1261 -0.01743,8.25166 0.0751,12.37679 0.07956,3.80468 0.163407,7.60899 0.298062,11.41215 0.105785,3.44452 0.179147,6.88981 0.290513,10.33416 0.112194,3.03928 0.208218,6.07758 0.165821,9.11913 -0.112375,0.94284 0.212246,1.79958 0.385289,2.70508 0,0 0.0665,-0.0342 0.0665,-0.0342 v 0 c 0.102011,-1.02042 0.356744,-2.01698 0.293599,-3.05061 -0.03664,-3.03274 -0.111763,-6.06521 -0.216677,-9.09629 -0.1226,-3.43414 -0.250444,-6.86804 -0.35115,-10.30293 -0.115961,-3.79621 -0.248266,-7.59191 -0.34191,-11.38879 -0.0878,-4.12416 -0.112605,-8.24859 -0.07741,-12.37364 4.5e-4,-4.6794 0.02182,-9.358603 0.11889,-14.037188 0.08206,-4.658434 0.212985,-9.315997 0.372043,-13.972444 0.158651,-4.147047 0.385734,-8.292071 0.455946,-12.442005 0.05455,-3.672403 0.07981,-7.345341 0.183815,-11.016869 0.0417,-3.235859 0.07103,-6.472097 0.215924,-9.705533 0.119302,-3.259277 0.141541,-6.518089 0.135519,-9.77951 7.68e-4,-3.081589 -0.03687,-6.16244 -0.126822,-9.242862 -0.05519,-2.727171 -0.04324,-5.456212 -0.16746,-8.181511 -0.109269,-2.021431 -0.195034,-4.043776 -0.296927,-6.065573 -0.0671,-1.153493 -0.159928,-2.30594 -0.177568,-3.4618083 -0.01251,-0.7646062 -0.04697,-1.5334414 0.04746,-2.2944828 z" />
      <path
         style="fill:#000000;stroke-width:0.529167"
         id="path4"
         d="M 9.7143971,10.084237 C 10.362524,9.1889833 11.004063,8.2889914 11.649779,7.392004 c 0.333786,-0.4481685 0.640878,-0.9163662 0.988569,-1.3541116 0.497174,-0.3843951 -0.827632,0.076853 -0.960795,0.4845023 0.155669,0.376867 0.429838,0.7114231 0.661739,1.0467205 0.403399,0.5564336 0.766045,1.1404844 1.149723,1.710231 0.260729,0.3617994 0.464902,0.7806728 0.842148,1.0345778 0.233598,0.118159 0.484061,0.03503 0.726978,-0.0075 0,0 0.06341,-0.03961 0.06341,-0.03961 v 0 c 0.086,-0.175102 0.189463,-0.3058234 0.02841,-0.46311 C 14.862941,9.4775712 14.606998,9.1261691 14.366811,8.7644183 13.982918,8.1947204 13.584451,7.6348126 13.211955,7.0573989 13.024585,6.7695653 12.711959,6.4145236 12.65204,6.0740157 12.908921,5.6248085 11.834356,6.134451 11.671147,6.4544569 11.361529,6.8897727 11.074825,7.3409208 10.76491,7.7760742 10.121837,8.6949443 9.4776463,9.6151413 8.7707747,10.486575 Z" />
      <path
         style="fill:#000000;stroke-width:0.529167"
         id="path5"
         d="m 5.3302312,146.59078 c 0.9455766,0.14613 1.9015525,0.0219 2.8446386,-0.0796 1.1614012,-0.12872 2.3310902,-0.13867 3.4979312,-0.16897 1.254978,-0.0565 2.497517,0.14488 3.738513,0.29733 1.460517,0.13493 2.914239,0.32085 4.365612,0.5306 1.506711,0.22563 3.023662,0.36511 4.543796,0.45682 1.769201,0.11518 3.537842,0.0207 5.304708,-0.0767 1.933527,-0.11258 3.86942,-0.0217 5.804405,-0.0411 2.036612,-0.094 4.073086,-0.09 6.110335,-0.0319 2.24151,0.0555 4.479414,0.18943 6.717991,0.31013 1.831676,0.0815 3.659679,0.22839 5.491413,0.30665 1.500979,0.0182 3.000764,0.0914 4.501679,0.10518 1.594911,-0.0282 3.190153,-0.0431 4.784336,-0.10106 1.462008,-0.0956 2.926125,-0.10759 4.390546,-0.10745 1.446223,0.0228 2.891388,0.01 4.336458,-0.0508 1.329539,-0.0615 2.65944,-0.0803 3.985868,-0.19527 1.152896,-0.13421 2.312382,-0.17187 3.470889,-0.22138 1.503272,-0.0906 3.003754,-0.21436 4.508145,-0.28742 1.80018,-0.0512 3.599373,-0.12177 5.398236,-0.20736 1.934395,-0.0862 3.8707,-0.11125 5.806712,-0.12768 1.499775,-0.0313 2.999174,0.0243 4.498787,0.0211 1.46041,-0.0525 2.91673,-0.14939 4.37867,-0.15565 1.55919,0.0182 3.11847,0.0205 4.67771,0.0331 1.46704,0.0113 2.93359,0.0471 4.39999,0.09 1.4659,0.0469 2.93276,0.0303 4.39912,0.0443 1.38267,0.0363 2.76578,0.0589 4.14821,0.10357 1.28631,0.0714 2.571,0.17466 3.85498,0.28018 1.4869,0.13894 2.9765,0.24315 4.46823,0.31192 1.51388,0.0887 3.02627,0.15262 4.54283,0.14973 1.33381,0.0175 2.66405,-0.0404 3.99339,-0.14222 1.30342,-0.0934 2.61245,-0.0716 3.91788,-0.0412 1.33027,0.0549 2.65712,0.16487 3.98728,0.22279 1.05853,0.0474 2.11801,0.0275 3.17709,0.0238 0.65317,0.005 1.4491,0.0781 1.84715,-0.65574 0.22281,-0.55277 -0.92648,-0.0134 -0.95524,0.45637 -0.0127,0.20108 0.34054,-0.21549 0.50788,-0.3277 0,0 -0.0661,0.0349 -0.0661,0.0349 v 0 c 0.51698,-0.15274 0.51106,0.0183 0.53845,-0.20831 -0.0403,-0.43331 -0.87561,0.16044 -1.02724,0.47088 -0.3062,0.22354 -0.22319,0.15991 0.81949,-0.44722 0.0331,-0.0193 -0.0704,0.032 -0.10788,0.04 -0.23861,0.0508 -0.48912,0.008 -0.72945,0.034 -1.07121,0.029 -2.14322,0.0536 -3.21449,0.0102 -1.33777,-0.0502 -2.67263,-0.14963 -4.00997,-0.20806 -1.30415,-0.0391 -2.6117,-0.0721 -3.91419,0.0264 -1.33203,0.10219 -2.66507,0.16271 -4.00153,0.15651 -1.51365,0.015 -3.02152,-0.0568 -4.53172,-0.15213 -1.48945,-0.0574 -2.97598,-0.15659 -4.45843,-0.31423 -1.28561,-0.10663 -2.57136,-0.22332 -3.86012,-0.28242 -1.39095,-0.0448 -2.78292,-0.0495 -4.1741,-0.0873 -1.46251,-0.0184 -2.92533,-0.009 -4.38752,-0.051 -1.4672,-0.0349 -2.93434,-0.0798 -4.40197,-0.0908 -1.56099,-0.009 -3.1221,-0.002 -4.68295,-0.0301 -1.45874,-0.006 -2.91108,0.0862 -4.36792,0.1472 -1.512791,0.0133 -3.025641,-0.0332 -4.538383,0.007 -1.942917,0.0279 -3.886025,0.0608 -5.827665,0.13965 -1.78952,0.0644 -3.578688,0.13424 -5.368673,0.18497 -1.486176,0.071 -2.970784,0.16738 -4.456301,0.25009 -1.165698,0.0488 -2.332704,0.083 -3.491447,0.23109 -1.329721,0.11818 -2.663184,0.15147 -3.996578,0.20817 -1.445231,0.069 -2.890359,0.0726 -4.337035,0.0565 -1.464942,-0.002 -2.930016,0.008 -4.392501,0.1042 -1.593196,0.0684 -3.187956,0.0886 -4.782423,0.10542 -1.50319,-0.0168 -3.005024,-0.0952 -4.508616,-0.0971 -1.851155,-0.057 -3.698402,-0.19889 -5.5494,-0.26314 -2.234351,-0.1161 -4.467913,-0.25209 -6.70438,-0.32228 -2.03226,-0.0674 -4.063029,-0.0758 -6.095048,0.0164 -1.940427,0.0195 -3.882257,-0.0719 -5.820968,0.0486 -1.751904,0.0878 -3.506848,0.16885 -5.260101,0.0569 -1.517395,-0.0933 -3.033222,-0.22251 -4.536875,-0.45224 -1.449821,-0.2132 -2.901263,-0.40977 -4.361739,-0.53598 -1.242936,-0.15094 -2.485095,-0.37341 -3.742579,-0.31158 -1.167683,0.0349 -2.339607,0.0255 -3.501364,0.16177 -0.9308057,0.10831 -1.8769608,0.23898 -2.8110595,0.0911 z" />
      <path
         style="fill:#000000;stroke-width:0.529167"
         id="path6"
         d="m 148.79439,144.79243 c 0.50203,0.74397 1.00643,1.48626 1.51773,2.22389 0.31486,0.47579 0.67871,0.92545 0.92263,1.44388 0.0405,0.13639 0.13016,0.28225 0.11401,0.43148 -0.004,0.039 -0.11612,0.10479 -0.0832,0.0834 0.30447,-0.19811 0.61436,-0.38776 0.92154,-0.58164 -0.29459,-0.0538 -0.53446,0.0225 -0.80465,0.13998 -1.08423,0.53985 -2.05977,1.23318 -2.99365,1.9935 -0.044,0.10159 -0.67801,0.41916 -0.18238,0.37518 0,0 0.0693,-0.0281 0.0693,-0.0281 v 0 c 0.39521,-0.21356 0.78079,-0.43944 1.11129,-0.7484 0.32955,-0.2654 0.66209,-0.5249 1.0088,-0.76784 0.12784,-0.0896 0.53588,-0.31144 0.38746,-0.26306 -0.21931,0.0715 -0.401,0.22836 -0.60591,0.33426 -0.10143,0.0524 0.19681,-0.11579 0.29521,-0.17368 0.2514,-0.11794 0.4727,-0.23217 0.75411,-0.15835 1.02609,-0.52801 1.38785,-0.36716 1.02405,-1.21329 -0.25693,-0.52147 -0.67998,-0.93732 -0.99434,-1.42336 -0.51463,-0.73258 -1.02933,-1.4664 -1.4992,-2.2288 z" />
      <path
         style="fill:#000000;stroke-width:0.529167"
         id="path7"
         d="m 3.5957809,9.1391316 c 0.6918846,1.0602904 1.2346003,2.2079664 1.9064678,3.2789944 0.2492092,0.184742 0.3110143,0.536801 0.5390621,0.739323 0.096444,0.08565 0.2333511,0.111984 0.3406137,0.183621 0.07668,0.05121 0.1385139,0.121752 0.207771,0.182628 0,0 0.065682,-0.03572 0.065682,-0.03572 v 0 C 6.7061296,13.228056 6.8288055,12.977012 6.8267627,12.712187 6.8259689,12.608396 6.5614152,11.863366 6.5463792,11.819327 6.0186789,10.666303 5.383096,9.5556828 4.7240316,8.4737159 Z" />
      <path
         style="fill:#000000;stroke-width:0.529167"
         id="path8"
         d="m 7.5756462,9.7073515 c -0.4516657,1.5358515 -0.947158,3.0554835 -1.483819,4.5637825 -0.3580093,1.081307 -0.8995143,2.097669 -1.1138347,3.224533 -0.2057485,1.081792 0.140336,0.160746 -0.2522958,1.056754 0,0 0.06819,-0.03066 0.06819,-0.03066 v 0 c 0.2839696,-0.464452 0.6236472,-0.893417 0.90522,-1.359326 0.6413317,-1.06119 1.0083379,-2.235697 1.4516687,-3.385237 C 7.7049515,12.277802 8.262341,10.77052 8.6179683,9.2090734 Z" />
      <path
         style="fill:#000000;stroke-width:0.529167"
         id="path9"
         d="m 150.03459,152.3154 c 0.71432,1.17468 1.43084,2.34865 2.20075,3.48795 0.091,0.1462 0.93997,1.28757 1.14899,1.17572 0.14948,-0.08 0.26855,-0.20701 0.40283,-0.31052 0,0 -0.0665,0.0342 -0.0665,0.0342 v 0 c 0.13631,-0.0561 0.28579,-0.0872 0.40892,-0.16823 0.12122,-0.0797 -0.0367,-0.24937 -0.0623,-0.29353 -0.21897,-0.37829 -0.45144,-0.74712 -0.73098,-1.08524 -0.79246,-1.12363 -1.48077,-2.31068 -2.20145,-3.48051 z" />
      <path
         style="fill:#000000;stroke-width:0.529167"
         id="path10"
         d="m 153.8957,152.03659 c -0.781,1.23831 -1.58119,2.46108 -2.44612,3.64255 -0.032,0.0438 -0.62332,0.84242 -0.70142,0.97906 -0.14091,0.24654 0.0481,0.22866 -0.15358,0.37378 0,0 0.0695,-0.0275 0.0695,-0.0275 v 0 c 0.76548,-0.55856 1.40459,-1.0161 1.95476,-1.83003 0.88347,-1.17893 1.70372,-2.40353 2.46814,-3.66311 z" />
    </g>
    <path
       style="display:inline;fill:#000000;stroke-width:0.70867"
       id="path11"
       d="m 55.3097,99.578597 c -0.289666,-0.79055 -0.293214,-1.55326 0.46894,-2.06539 -1.092083,0.63391 -2.193944,1.25223 -3.276246,1.9017 -0.03023,0.0182 0.214811,-0.15464 0.470128,-0.0484 0.283967,0.11812 0.381258,0.41541 0.474565,0.668473 0.153259,0.73553 -0.178335,1.35064 -0.842424,1.69925 6.269655,-3.676573 3.422475,-0.88553 2.088816,-2.309033 -0.229692,-0.56338 0.171544,-1.12033 0.560674,-1.51086 1.498105,-0.78466 -0.799973,0.41455 -3.062071,1.77217 -0.04368,0.0262 0.226136,-0.11311 0.370832,0.0352 0.127157,0.13026 0.123565,0.399703 0.141542,0.545803 -0.02498,0.43529 -0.104656,0.79336 -0.466355,1.08179 -0.103894,0.0828 -0.458653,0.27283 -0.34289,0.20639 3.347378,-1.921483 4.470155,-2.205323 3.05263,-1.823583 -0.576633,-0.34437 -0.08685,-1.27939 0.145095,-1.7051 0.667872,-0.89129 0.209643,-0.67619 -0.55065,-0.40161 0,0 -0.847708,0.3288 -0.847708,0.3288 v 0 c -0.880373,0.40502 -1.77889,0.81107 -2.266748,1.6761 -0.4077,0.794933 -0.634948,1.772813 0.09953,2.462783 1.756362,0.5352 0.392716,0.20895 4.236875,-2.04996 0.219692,-0.129073 0.442604,-0.515393 0.520645,-0.730423 0.1223,-0.33698 0.09852,-0.58702 0.106111,-0.93702 -0.06786,-0.34863 -0.0628,-0.5485 -0.290122,-0.84244 -0.978921,-1.26573 -3.836272,1.06913 -4.680989,1.96844 -0.421134,0.609213 -0.706226,1.330063 -0.323409,2.028293 1.626567,1.84517 3.546053,-0.10719 5.403842,-1.29936 0.604399,-0.591153 0.823801,-1.349043 0.601322,-2.164973 -1.081673,-2.64577 -3.170773,-0.17648 -5.176685,0.99462 -0.562333,0.75801 -0.57622,1.636303 -0.277077,2.508563 z"
       inkscape:label="point" />
    <g
       id="g37"
       inkscape:label="width"
       transform="translate(21.980199,-34.920054)">
      <path
         style="display:inline;fill:#000000;stroke-width:0.529167"
         id="path13"
         d="m 32.5859,135.1831 c 0.760331,-0.0394 1.520516,-0.085 2.281156,-0.11941 0.816816,-0.038 1.634601,-0.0505 2.451224,-0.0915 0.898829,-0.10701 1.797466,-0.1264 2.699938,-0.0683 0.727398,0.0315 1.454229,-0.008 2.181281,0.0306 0.953486,0.0994 1.910537,0.15141 2.867331,0.20622 0.923142,0.077 1.8483,0.10803 2.773741,0.13946 0.884312,0.034 1.767192,0.0961 2.649855,0.15845 0.99808,0.0416 1.9885,0.15741 2.978481,0.28415 1.26592,0.18307 2.541259,0.28127 3.816906,0.36458 1.510747,0.0892 3.022232,0.16727 4.534275,0.23089 1.684465,0.0695 3.364598,0.21007 5.046792,0.31683 1.737217,0.1026 3.478541,0.0753 5.217838,0.0755 1.549691,0.009 3.096863,0.10585 4.645972,0.13789 1.400209,0.0197 2.8009,-0.0111 4.200059,-0.0647 1.422585,-0.0762 2.845054,-0.15072 4.269277,-0.18786 0.865539,-0.014 1.731169,-0.0232 2.596782,-0.0315 0.683377,-0.007 1.366713,-0.0181 2.049936,-0.0341 0.514916,-0.0225 1.029796,-0.008 1.544566,0.008 0.185941,-0.0106 0.379439,0.0377 0.564732,0.0111 0.0046,-0.033 -0.09108,-0.10813 -0.05177,-0.13441 0.232985,-0.15567 0.584465,-0.21401 0.850003,-0.30816 0,0 0.06939,-0.0278 0.06939,-0.0278 v 0 c 0.256329,-0.12543 1.459556,-0.51833 1.044414,-0.91589 -0.193876,-0.024 -0.398973,0.0512 -0.594656,0.0148 -0.526267,-0.0101 -1.052793,-0.0224 -1.578901,0.003 -0.680747,0.0191 -1.361223,0.0184 -2.042046,0.0302 -0.886786,0.0255 -1.773759,0.0448 -2.66042,0.0751 -1.426567,0.0468 -2.851648,0.11798 -4.277051,0.19152 -1.399307,0.0495 -2.799394,0.0931 -4.199768,0.0803 -1.560192,-0.0339 -3.119186,-0.11368 -4.679974,-0.11884 -1.731245,-0.001 -3.464046,0.0344 -5.193199,-0.0765 -1.687909,-0.10556 -3.374168,-0.2393 -5.064247,-0.30834 -1.500721,-0.0806 -3.002287,-0.14655 -4.501787,-0.24874 -1.265936,-0.0902 -2.534941,-0.16426 -3.789648,-0.36491 -0.985531,-0.14837 -1.975909,-0.25348 -2.971303,-0.30896 -0.886534,-0.0553 -1.772491,-0.1223 -2.659851,-0.16252 -0.949859,-0.0167 -1.901034,-0.004 -2.849081,-0.0774 -0.985983,-0.0514 -1.973963,-0.0587 -2.958311,-0.14041 -0.781635,-0.0465 -1.559645,-0.0185 -2.338578,0.0659 -0.976995,0.0801 -1.959472,0.0791 -2.930938,0.22571 -0.842012,0.079 -1.685792,0.11482 -2.530462,0.15386 -0.805767,0.0458 -1.607663,0.12576 -2.410179,0.20949 z" />
      <path
         style="display:inline;fill:#000000;stroke-width:0.529167"
         id="path14"
         d="m 90.291813,134.44659 c 0.592646,0.54041 1.137465,1.13161 1.655183,1.74351 0.07117,0.10187 0.650089,0.69763 0.585348,0.77235 -0.359709,0.0783 -0.685567,0.38117 -0.937461,0.64075 -0.430763,0.51422 -0.825314,1.05754 -1.224322,1.59642 0.268793,0.13398 0.525709,0.0281 0.795128,-0.0476 0,0 0.06872,-0.0294 0.06872,-0.0294 v 0 c 0.513951,-0.27769 1.020033,-0.56853 1.48009,-0.93201 0.410991,-0.53292 0.797497,-1.0903 1.273421,-1.56834 0.205269,-0.17177 0.713986,-0.445 0.830704,-0.67849 0.03028,-0.0606 0.0287,-0.13236 0.04306,-0.19854 -0.108191,-0.36527 -0.487847,-0.58929 -0.701797,-0.89275 -0.548031,-0.59228 -1.101339,-1.17961 -1.649537,-1.77172 z" />
    </g>
    <g
       id="g36"
       inkscape:label="height"
       transform="translate(21.980199,-34.920054)">
      <path
         style="display:inline;fill:#000000;stroke-width:0.529167"
         id="path12"
         d="m 32.7397,132.70345 c 0.161586,-0.73737 0.240342,-1.48845 0.347869,-2.23458 0.141735,-0.80871 0.09302,-1.64075 0.08975,-2.45936 0.04964,-0.97346 0.06095,-1.94716 0.07014,-2.92165 -0.0053,-1.06661 0.09403,-2.12929 0.123706,-3.19482 -0.02209,-1.23011 0.02125,-2.45874 0.07934,-3.68718 0.0792,-1.30364 0.0333,-2.6097 0.04266,-3.91478 0.0068,-1.48139 0.04718,-2.96165 0.09602,-4.44212 0.05584,-1.24022 0.06097,-2.48166 0.07785,-3.72275 0.0245,-1.07251 0.106918,-2.14216 0.139764,-3.21432 0.02471,-1.15812 0.05563,-2.31604 0.08772,-3.473976 0.01503,-0.970807 0.05499,-1.940663 0.115724,-2.90961 0.04343,-0.834385 0.11413,-1.667179 0.149526,-2.501961 0.02752,-0.65106 0.06195,-1.301528 0.06183,-1.953342 -0.01566,-0.721354 0.0037,-1.442759 0.01064,-2.16408 -0.06353,-0.213926 0.121147,-0.793268 -0.0035,-0.973791 -0.08201,-0.118747 -0.319778,-0.05303 -0.403773,-0.04524 -0.371443,0.09143 -0.173932,0.02609 -0.585973,0.214871 0,0 -0.06096,0.04329 -0.06096,0.04329 v 0 c -0.354962,0.20828 -0.187981,0.09584 -0.502581,0.334862 -0.143602,0.131545 -0.314859,0.253261 -0.392829,0.442502 -0.122926,0.298344 0.0437,0.686917 -0.04429,0.992886 -0.03119,0.732936 -0.04517,1.466472 -0.07554,2.199449 -0.02164,0.652923 -0.05089,1.3056 -0.08513,1.957978 -0.03797,0.830395 -0.08485,1.660319 -0.132016,2.49024 -0.04638,0.96969 -0.09412,1.939332 -0.0997,2.910382 -0.01622,1.15706 -0.03573,2.31423 -0.09016,3.47025 -0.05312,1.07017 -0.109519,2.14054 -0.12304,3.21213 -0.02201,1.23786 -0.03011,2.47594 -0.06621,3.71354 -0.03611,1.47815 -0.05557,2.95662 -0.07372,4.43508 -0.02125,1.29316 -0.0082,2.58529 0.02154,3.87817 -0.0108,1.21815 -0.02487,2.43635 -0.0035,3.65449 0.02146,1.04482 0.02999,2.08932 -0.0026,3.13411 0.0094,0.9535 0.03597,1.9066 0.04851,2.85996 -0.01222,0.78815 -0.03102,1.5843 0.07268,2.36704 0.02511,0.70072 -0.03279,1.3994 -0.103384,2.09636 z" />
      <path
         style="display:inline;fill:#000000;stroke-width:0.529167"
         id="path15"
         d="m 31.109584,92.879761 c 0.742852,-0.725197 1.409411,-1.517772 2.059141,-2.325809 0.443939,-0.585497 0.933971,-1.133827 1.378188,-1.718898 0.08595,-0.0878 0.137131,-0.200207 0.20421,-0.296804 -0.031,-0.01791 0.0356,-0.02463 0.02641,-0.01889 -2.021912,1.260255 -2.112923,0.715229 -1.075111,1.586373 0.508905,0.446719 0.935625,0.974307 1.402358,1.46269 0.308478,0.321091 0.677479,0.442794 1.111306,0.331436 0.369638,-0.09488 0.401679,-0.250598 0.334129,-0.05221 0,0 0.06763,-0.03187 0.06763,-0.03187 v 0 c 0.0697,-0.233386 -0.03151,0.05867 0.338709,-0.36508 0.28234,-0.323162 0.153049,-0.656154 -0.106976,-0.942713 -0.45702,-0.506018 -0.918538,-1.008806 -1.407567,-1.484286 -0.777965,-0.709203 -1.491584,-1.42889 -2.623513,0.375301 -0.05535,0.07999 -0.09292,0.176083 -0.159833,0.251888 -0.396105,0.558065 -0.793829,1.114997 -1.226822,1.645463 -0.545203,0.689742 -1.098508,1.37225 -1.576171,2.110837 z" />
    </g>
    <g
       id="g38"
       inkscape:label="dashed"
       transform="translate(21.980199,-34.920054)">
      <path
         style="display:inline;fill:#000000;stroke-width:0.529167"
         id="path16"
         d="m 35.75799,90.507938 c 1.113753,-0.04568 2.216295,-0.189513 3.311631,-0.390477 0.526367,-0.07342 0.992195,-0.32792 1.49253,-0.483656 0,0 0.06179,-0.0421 0.06179,-0.0421 v 0 c 0.170405,-0.452138 0.298011,-0.486262 -0.356909,-0.379259 -1.109906,0.220625 -2.228371,0.411784 -3.361968,0.449432 z" />
      <path
         style="display:inline;fill:#000000;stroke-width:0.529167"
         id="path17"
         d="m 43.010576,90.753064 c 1.036908,0.192857 2.102371,0.298257 3.156638,0.237953 0.480968,-0.172067 0.976612,-0.512236 1.508779,-0.43701 0,0 0.06223,-0.04145 0.06223,-0.04145 v 0 c -0.233312,-0.236836 -0.06899,-0.399211 0.04087,-0.688133 -1.022623,-0.117412 -2.061067,-0.09122 -3.081033,-0.253768 z" />
      <path
         style="display:inline;fill:#000000;stroke-width:0.529167"
         id="path18"
         d="m 51.013343,91.377737 c 1.123218,-0.0081 2.248506,0.0052 3.370287,-0.05876 0.58012,-0.02633 1.076632,-0.299355 1.591093,-0.534075 0.362402,-0.165346 0.232304,-0.186428 0.43157,-0.124822 0,0 0.0618,-0.04207 0.0618,-0.04207 v 0 c -0.02736,-0.0089 -0.08088,0.0021 -0.08209,-0.02661 -0.01307,-0.310152 0.638472,-0.554937 -0.233317,-0.570769 -1.122749,0.04367 -2.245797,0.06986 -3.369421,0.07762 z" />
      <path
         style="display:inline;fill:#000000;stroke-width:0.529167"
         id="path19"
         d="m 59.971669,91.310456 c 0.08539,0.04751 0.162695,0.114073 0.256178,0.142539 0.701005,0.213461 1.769229,0.04951 2.503453,-0.0013 0.879803,0.04425 1.605875,-0.374935 2.368849,-0.743103 0,0 0.06041,-0.04405 0.06041,-0.04405 v 0 c 0.08595,-0.133176 0.212783,-0.239332 0.285906,-0.37996 0.214876,-0.413243 -0.753557,-0.22728 -0.832104,-0.223261 -1.026536,0.08686 -2.052005,0.158491 -3.081928,0.176757 z" />
      <path
         style="display:inline;fill:#000000;stroke-width:0.529167"
         id="path20"
         d="m 67.952389,91.822806 c 1.104355,0.224695 2.255541,0.07858 3.375983,0.05465 0.455636,-0.03656 0.931912,0.058 1.379519,-0.07311 0.477657,-0.139909 0.915355,-0.409184 1.33351,-0.669002 0.0275,-0.0086 0.05501,-0.01725 0.08251,-0.02588 0,0 0.05911,-0.04577 0.05911,-0.04577 v 0 c -0.02744,0.0087 -0.05487,0.01744 -0.08231,0.02614 0.03391,-0.0346 0.440261,-0.407138 0.320002,-0.534086 -0.157292,-0.166039 -1.052581,0.02453 -1.248081,-0.02484 -1.155986,0.02946 -2.312565,0.0997 -3.469034,0.06685 z" />
      <path
         style="display:inline;fill:#000000;stroke-width:0.529167"
         id="path21"
         d="m 77.527689,92.53476 c 1.023453,0.09336 2.052669,-1.08e-4 3.073318,-0.08626 0.147164,-0.01273 0.295018,-0.01905 0.441494,-0.03815 0.395986,-0.05159 0.748551,-0.154871 1.110329,-0.321704 0.372264,-0.171667 0.323009,-0.303853 0.365985,-0.12188 0,0 0.06575,-0.0356 0.06575,-0.0356 v 0 c -0.04149,-0.151688 0.323549,-0.299836 0.214416,-0.438631 -0.08472,-0.107746 -0.855202,0.0089 -0.92456,0.01283 -1.072726,0.106315 -2.14707,0.174448 -3.224059,0.216403 z" />
      <path
         style="display:inline;fill:#000000;stroke-width:0.529167"
         id="path22"
         d="m 85.726359,92.494686 c 0.968692,0.110289 1.957025,0.01267 2.923767,-0.09011 0.848823,-0.06916 1.615792,-0.440386 2.324667,-0.890116 0,0 0.05884,-0.04613 0.05884,-0.04613 v 0 c 0.05952,-0.06284 0.219892,-0.228914 0.240842,-0.274798 0.01376,-0.03014 -0.01736,-0.06414 -0.02993,-0.09479 -0.01667,-0.04064 -0.01524,-0.106852 -0.0576,-0.118541 -0.08295,-0.02289 -0.727401,0.08104 -0.732838,0.08182 -1.032997,0.128251 -2.071116,0.162017 -3.106362,0.258056 z" />
      <path
         style="display:inline;fill:#000000;stroke-width:0.529167"
         id="path23"
         d="m 93.428345,92.363006 c -0.03472,0.14792 -0.08228,0.293401 -0.104169,0.443756 -0.04268,0.293169 -0.07176,1.058175 -0.08238,1.330077 -0.02891,0.739894 -0.0486,1.480272 -0.07318,2.220325 -0.127085,1.062238 0.484055,0.597196 0.964178,1.183261 0,0 0.06724,-0.03269 0.06724,-0.03269 v 0 c 0.298606,-0.448432 0.952198,-1.193038 1.125773,-1.630537 0.079,-0.199131 0.03776,-0.426792 0.05664,-0.640186 0.01712,-0.739428 0.04025,-1.477719 0.07691,-2.216475 0.01045,-0.210614 0.06217,-1.060622 0.05399,-1.310087 -0.004,-0.122254 -0.0319,-0.242547 -0.04786,-0.363821 z" />
      <path
         style="display:inline;fill:#000000;stroke-width:0.529167"
         id="path24"
         d="m 93.817653,100.4047 c -0.164269,1.26501 -0.193725,2.58251 0.0313,3.84062 0.213537,0.60136 0.26261,0.74725 0.880623,0.85863 0,0 0.06596,-0.0352 0.06596,-0.0352 v 0 c 0.385189,-0.55332 0.642914,-0.98385 0.723432,-1.682 0.109437,-1.23937 0.07533,-2.54019 -0.215987,-3.752622 z" />
      <path
         style="display:inline;fill:#000000;stroke-width:0.529167"
         id="path25"
         d="m 94.237079,108.53723 c -0.123106,1.43824 0.04042,2.87795 0.163279,4.31033 0.08017,0.69016 -0.03243,0.78926 0.426434,1.27657 0.468019,0.49703 0.307475,0.002 0.409845,0.47465 0,0 0.06632,-0.0345 0.06632,-0.0345 v 0 c 0.01548,-0.56222 -0.03538,0.0645 0.278749,-0.83508 0.283406,-0.81159 0.20274,-0.72031 0.135337,-1.56705 -0.125293,-1.40173 -0.139189,-2.81495 -0.359688,-4.20557 z" />
      <path
         style="display:inline;fill:#000000;stroke-width:0.529167"
         id="path26"
         d="m 94.627037,117.38085 c -0.181639,1.33422 -0.257331,2.6816 -0.390231,4.02204 0.0496,0.24461 -0.09432,0.90086 0.188841,1.09523 0.238223,0.16352 0.282186,-0.0868 0.224721,0.11288 0,0 0.06754,-0.0321 0.06754,-0.0321 v 0 c 0.07154,-0.25357 -0.04692,0.11644 0.336116,-0.38924 0.31336,-0.4137 0.39854,-0.96513 0.520317,-1.45133 0.135403,-1.30395 0.284869,-2.62495 0.199903,-3.93573 z" />
      <path
         style="display:inline;fill:#000000;stroke-width:0.529167"
         id="path27"
         d="m 93.622076,125.7163 c -0.01215,1.1246 -0.05609,2.25234 0.0118,3.37591 0.217395,0.47892 0.236845,0.57726 0.759693,0.60118 0,0 0.319315,-0.15861 0.319315,-0.15861 v 0 c 0.448395,-0.44749 0.700574,-0.8142 0.888026,-1.43568 0.142748,-1.14309 0.127723,-2.29906 0.102341,-3.44901 z" />
      <path
         style="display:inline;fill:#000000;stroke-width:0.529167"
         id="path28"
         d="m 94.309101,131.51218 c -5.29e-4,0.53254 -0.0054,1.06516 -0.01585,1.5976 -0.0042,0.21315 -0.03523,0.84336 0.0076,1.07569 0.02328,0.1262 0.091,0.23999 0.136498,0.35998 0.269928,0.42573 0.275966,0.42665 0.767649,0.32974 0,0 0.06737,-0.0324 0.06737,-0.0324 v 0 c 0.541104,-0.41718 0.626771,-0.52217 0.884303,-1.16533 0.05635,-0.17196 0.131638,-0.33884 0.16904,-0.51589 0.18701,-0.88528 0.01667,-1.82984 0.08379,-2.7246 z" />
    </g>
    <g
       id="g39"
       inkscape:label="legend"
       transform="translate(7.14375,-12.170833)">
      <path
         style="display:inline;fill:#000000;stroke-width:0.529167"
         id="path34"
         d="m 70.165358,118.27582 c 0.370525,1.14429 0.636344,2.31859 0.905023,3.4899 0.462942,2.05443 0.259379,1.47103 2.83786,-0.0856 0.341464,-0.82663 0.703152,-1.64413 1.09264,-2.44922 0.224673,-0.40546 0.399383,-0.89975 0.781957,-1.18905 -0.709118,0.42166 -1.412036,0.85394 -2.127358,1.26499 -0.0304,0.0175 0.0196,-0.0842 0.04024,-0.0522 0.02249,0.0348 0.03779,0.0741 0.05143,0.11329 0.06838,0.19639 0.108256,0.38858 0.157297,0.59151 0.191714,0.83692 0.434396,1.6612 0.737944,2.46427 0.523221,1.47419 2.340814,-0.076 2.969461,-1.12526 0.60397,-0.99586 1.132562,-2.03486 1.64937,-3.07781 0.246634,-0.65723 0.70766,-1.24387 0.913326,-1.91706 -0.395372,-0.0694 -0.944298,0.35242 -1.236874,0.52042 0,0 0.06902,-0.0287 0.06902,-0.0287 v 0 c -0.388282,0.13657 -0.804233,0.25721 -1.111004,0.54797 -0.354484,0.59737 -0.531717,1.29293 -0.881393,1.89464 -0.525619,1.05447 -1.072021,2.10335 -1.738517,3.07719 -0.698859,0.87236 -0.135329,0.10835 1.889948,-0.91545 0.03666,-0.0185 -0.0109,0.0858 -0.03701,0.11753 -0.04115,0.0499 -0.125047,-0.0575 -0.157541,-0.11347 -0.04081,-0.0703 -0.06978,-0.1468 -0.104672,-0.2202 -0.319926,-0.78299 -0.579749,-1.59003 -0.723902,-2.42545 -0.36407,-1.87183 -0.624446,-1.00905 -2.752127,0.27352 -0.296839,0.37684 -0.495705,0.81581 -0.694669,1.2495 -0.367477,0.81318 -0.696394,1.65594 -1.167329,2.41469 0.710251,-0.38413 1.4027,-0.80318 2.130753,-1.1524 0.04029,-0.0193 0.03211,0.11278 -0.0073,0.13386 -0.02548,0.0136 -0.08385,-0.12139 -0.147206,-0.31755 -0.08319,-0.25756 -0.150268,-0.52971 -0.219001,-0.79028 -0.302861,-1.17177 -0.555162,-2.35617 -0.878845,-3.52249 z"
         inkscape:label="w" />
      <path
         style="display:inline;fill:#000000;stroke-width:0.529167"
         id="path35"
         d="m 37.418439,86.462569 c 0.384064,2.16193 0.542353,4.35112 0.626233,6.54242 0.03227,0.99165 0.0015,1.98321 0.0013,2.97495 -7.5e-5,0.32148 0.0083,0.63324 -0.02614,0.95219 0.732278,-0.43071 1.506125,-0.79748 2.196834,-1.29211 0.095,-0.068 0.05303,-0.22765 0.08307,-0.34057 0.03724,-0.13997 0.07583,-0.27965 0.11872,-0.418 0.156361,-0.50442 0.352992,-0.97981 0.57618,-1.45762 0.200369,-0.3798 0.4322,-0.74573 0.760161,-1.02917 0.07858,-0.0679 0.342943,-0.23366 0.252749,-0.18218 -2.0845,1.18998 -2.393327,1.30629 -1.589284,0.97561 0.568815,-0.14052 0.690332,0.39818 0.801698,0.83774 0.145199,0.67306 0.141039,1.36362 0.203934,2.04586 0.01839,0.23301 0.0057,0.28541 0.251266,0.32788 0.249989,0.0433 0.165294,0.0274 0.459373,-0.0619 0,0 0.539707,-0.2519 0.539707,-0.2519 v 0 c 0.393997,-0.26697 0.847977,-0.58312 0.869204,-1.10223 0.0182,-0.70492 -0.09457,-1.40969 -0.21468,-2.10209 -0.151762,-0.54847 -0.358669,-1.15899 -1.03255,-1.14142 -1.540761,0.30268 -2.724696,1.30696 -3.384861,2.63503 -0.283223,0.63204 -0.524202,1.26799 -0.723305,1.93153 -0.03545,0.11815 -0.223774,0.38312 -0.103609,0.35526 0.724535,-0.16801 1.385246,-0.54204 2.077868,-0.81305 -0.01824,-0.31973 0.03167,-0.64855 0.04446,-0.96627 0.03984,-0.99028 -0.0057,-1.98021 -0.04176,-2.96987 -0.07101,-1.38519 -0.147515,-2.76838 -0.273674,-4.14991 -0.06044,-0.66191 -0.122027,-1.381 -0.25585,-2.03907 -0.02809,-0.13814 -0.08029,-0.27026 -0.12044,-0.40539 z"
         inkscape:label="h" />
      <path
         style="display:inline;fill:#000000;stroke-width:0.529167"
         id="path36"
         d="m 38.415861,113.66412 c -0.165662,1.5252 -0.162431,3.06998 -0.207271,4.60414 -0.03757,1.79308 -0.165424,3.58231 -0.360751,5.36467 -0.03214,0.29741 -0.07122,0.59384 -0.0985,0.89173 -0.0019,0.0206 -0.0238,0.0724 -0.0059,0.0619 1.968428,-1.1484 1.930145,-0.42894 1.822927,-1.50599 -0.09042,-1.30378 -0.02201,-2.609 0.03293,-3.91246 0.05624,-1.30107 0.273404,-2.58132 0.667513,-3.82115 0.219515,-0.53252 0.450141,-1.10869 0.8993,-1.49606 0.08417,-0.0726 0.372114,-0.24297 0.276309,-0.18664 -0.448311,0.26363 -0.889506,0.53917 -1.334258,0.80875 0.565816,-0.16954 1.031607,0.17733 1.435331,0.536 0.526413,0.5664 0.409226,1.12345 0.230669,1.81708 -0.264768,0.71984 -0.627594,1.40289 -1.244643,1.87323 0.596644,-0.35412 1.20014,-0.69694 1.789934,-1.06236 0.03015,-0.0187 -0.166085,0.11617 -0.506024,0.16629 -0.251891,0.0371 -0.488246,0.002 -0.735176,-0.0436 -0.381086,-0.0902 -0.756921,-0.0281 -1.121238,0.1023 -0.574687,0.20576 -0.253963,0.1681 -0.608461,0.18997 0,0 -0.06438,0.038 -0.06438,0.038 v 0 c -0.170806,0.34244 -0.86434,0.79906 -0.226785,1.07002 1.466289,0.39293 2.380819,-0.49333 3.687477,-1.36079 0.518448,-0.51794 0.785383,-1.17074 0.923186,-1.88703 0.13335,-0.72898 0.212302,-1.44673 -0.419817,-1.96699 -0.487375,-0.39654 -1.004522,-0.75535 -1.666713,-0.64162 -1.829487,1.02909 -2.288831,0.99018 -2.915922,2.80013 -0.371675,1.25542 -0.562659,2.54381 -0.63247,3.85157 -0.09124,1.3313 -0.07302,2.66613 -0.180769,3.99665 -0.111654,1.05513 -0.18145,0.54914 1.82511,-0.30355 0.02699,-0.0114 0.07184,-0.55429 0.07273,-0.56672 0.0099,-0.13726 0.0189,-0.27458 0.02835,-0.41188 0.106563,-1.77808 0.203758,-3.55684 0.275836,-5.33668 0.02284,-1.42569 0.123468,-3.01031 -0.241778,-4.39458 z"
         inkscape:label="p" />
    </g>
  </g>
</svg>
